HIERARCHY
ROOT pelvis
{
  OFFSET 0 100 0
  CHANNELS 6 Xposition Yposition Zposition Zrotation Xrotation Yrotation
  JOINT pelvis_right_femur
  {
    OFFSET -10.78128 -3.44521 -0.5502486
    CHANNELS 3 Zrotation Xrotation Yrotation
    JOINT right_femur_tibia
    {
      OFFSET -0.8047443 -44.0398 -0.1307829
      CHANNELS 3 Zrotation Xrotation Yrotation
      JOINT right_tibia_foot
      {
        OFFSET 3.006224 -47.83518 -5
        CHANNELS 3 Zrotation Xrotation Yrotation
        End Site
        {
          OFFSET 0 -5 15
        }
      }
    }
  }
  JOINT pelvis_left_femur
  {
    OFFSET 10.78128 -3.44521 -0.5502486
    CHANNELS 3 Zrotation Xrotation Yrotation
    JOINT left_femur_tibia
    {
      OFFSET 0.8047443 -44.0398 -0.1307829
      CHANNELS 3 Zrotation Xrotation Yrotation
      JOINT left_tibia_foot
      {
        OFFSET -4.370144 -48.10324 -4.275266
        CHANNELS 3 Zrotation Xrotation Yrotation
        End Site
        {
          OFFSET 0 -5 15
        }
      }
    }
  }
  JOINT pelvis_spine1
  {
    OFFSET 0 6.468898 -3.129235
    CHANNELS 3 Zrotation Xrotation Yrotation
    JOINT spine1
    {
      OFFSET 0 23.15396 4.99043
      CHANNELS 3 Zrotation Xrotation Yrotation
      JOINT spine2
      {
        OFFSET 0 20.79997 -5.064912
        CHANNELS 3 Zrotation Xrotation Yrotation
        JOINT neck
        {
          OFFSET 0 14.38658 9.616178
          CHANNELS 3 Zrotation Xrotation Yrotation
          End Site
          {
            OFFSET 0 20 0
          }
        }
      }
      JOINT right_manubrium
      {
        OFFSET -5.722621 16.35077 3.967754
        CHANNELS 3 Zrotation Xrotation Yrotation
        JOINT right_clavicle
        {
          OFFSET -13.16364 1.694482 -4.693211
          CHANNELS 3 Zrotation Xrotation Yrotation
          JOINT right_humerus
          {
            OFFSET -28.5034 -0.3100689 -2.792744
            CHANNELS 3 Zrotation Xrotation Yrotation
            JOINT right_radius
            {
              OFFSET -25.15693 0.02248979 -1.271978
              CHANNELS 3 Zrotation Xrotation Yrotation
              End Site
              {
                OFFSET -15 0 0
              }
            }
          }
        }
      }
      JOINT left_manubrium
      {
        OFFSET 5.722621 16.35077 3.967754
        CHANNELS 3 Zrotation Xrotation Yrotation
        JOINT left_clavicle
        {
          OFFSET 13.16364 1.694482 -4.693211
          CHANNELS 3 Zrotation Xrotation Yrotation
          JOINT left_humerus
          {
            OFFSET 29.39168 -1.063119 -2.237045
            CHANNELS 3 Zrotation Xrotation Yrotation
            JOINT left_radius
            {
              OFFSET 24.59957 -0.9528479 0.9047498
              CHANNELS 3 Zrotation Xrotation Yrotation
              End Site
              {
                OFFSET 15 -0 -0
              }
            }
          }
        }
      }
    }
  }
}
MOTION
Frames: 8
Frame Time: 0.0416666666667
41.61942 102.7603 245.4673 1.514927 -6.510762 5.352251 2.024586 12.14815 5.108088 6.756382e-11 33.32281 -9.585755e-10 -3.036863 -10.20677 -2.374021 -2.749505 -17.09481 -9.83879 -6.175062e-09 17.85044 -3.168323e-09 -3.571495 -9.522252 20.79197 -1.638411 -0.6010594 7.193561 -0.9534493 10.25235 -3.794655 1.891065 22.66235 5.26439 2.596991 -18.63405 6.775745 1.791501 -22.36962 11.1887 83.63599 25.98665 -8.1526 -1.376752e-10 1.008121e-10 22.83357 -20.47192 10.42929 12.38697 4.309747 -16.84073 -3.163963 -96.3515 25.72836 28.0989 -6.003207e-10 -5.331168e-10 -9.932928 -1.882007 10.69074 16.34752
42.95398 102.7182 250.4674 1.546846 -6.179429 5.42763 1.813749 9.610228 5.126325 7.035022e-10 35.02115 -1.254801e-09 -3.000931 -9.726729 -2.524213 -3.417106 -14.67429 -10.81964 -6.585606e-09 15.52219 -2.589158e-09 -3.057446 -10.78087 20.95905 -1.898047 -0.6785342 6.876285 -0.7958506 10.11857 -4.085267 1.840083 22.79408 5.539735 2.71293 -19.01684 7.035206 2.092506 -22.12917 11.19394 84.39787 26.6356 -9.014252 -1.138718e-10 8.410378e-11 22.36242 -20.03358 10.31804 12.13178 4.499149 -17.07297 -3.142881 -96.65633 26.13603 27.59703 -6.755897e-10 -5.702547e-10 -10.54171 -1.694905 10.94379 16.22989
44.26507 102.6392 255.3132 1.578529 -5.711102 5.642659 1.587581 5.969165 5.097537 1.523683e-09 36.92346 -1.637256e-09 -2.988737 -9.029189 -2.744875 -4.204845 -11.20637 -12.01697 -6.909363e-09 12.68398 -1.806902e-09 -2.391102 -12.4247 21.08644 -2.216125 -0.7787157 6.412939 -0.5649807 9.927109 -4.494162 1.769564 22.90661 5.891094 2.861877 -19.48807 7.359493 2.471368 -21.70719 11.17105 85.2798 27.43599 -10.24627 -8.069098e-11 6.068828e-11 21.54811 -19.3643 10.16406 11.71001 4.7527 -17.40567 -3.128351 -96.6984 26.6802 26.68068 -7.564565e-10 -6.01501e-10 -11.4795 -1.385015 11.27601 15.96471
45.52299 102.5262 259.9885 1.567096 -5.165779 5.983551 1.479836 1.483213 4.964774 2.255067e-09 38.06532 -1.929273e-09 -3.075221 -8.162907 -3.033969 -4.884037 -6.976376 -13.09689 -6.752129e-09 10.40407 -8.83769e-10 -1.756808 -14.09843 20.98243 -2.482115 -0.8810186 5.834076 -0.2675279 9.711689 -4.989332 1.692365 22.90693 6.230751 3.007257 -19.92175 7.657654 2.823222 -21.04268 11.09564 86.00835 28.16829 -11.78669 -4.213723e-11 3.327348e-11 20.25229 -18.47953 10.00296 11.08011 5.030168 -17.84934 -3.154177 -96.00217 27.23431 25.14695 -7.915939e-10 -5.905647e-10 -12.81414 -0.9084079 11.6323 15.43835
46.7133 102.3851 264.5227 1.5211 -4.654041 6.423578 1.498607 -3.081222 4.784979 2.77103e-09 38.42578 -2.069444e-09 -3.253134 -7.30392 -3.351671 -5.378254 -2.72933 -13.95056 -6.194889e-09 9.073752 4.916834e-11 -1.262482 -15.5835 20.74343 -2.663426 -0.9728761 5.259598 0.04600101 9.54303 -5.505228 1.623827 22.8831 6.526365 3.141378 -20.32073 7.912991 3.111128 -20.32839 11.02651 86.82863 28.7664 -13.49672 -5.137412e-12 6.137227e-12 18.77711 -17.60338 9.886309 10.39888 5.302468 -18.39396 -3.223119 -95.09474 27.68469 23.41998 -7.786889e-10 -5.438417e-10 -14.36126 -0.3554546 11.99212 14.80199
47.81489 102.2312 268.9089 1.431689 -4.144726 6.931304 1.602495 -7.599325 4.543174 3.051425e-09 37.82222 -2.034398e-09 -3.474991 -6.409842 -3.656657 -5.681422 1.462035 -14.50471 -5.279832e-09 8.489912 9.732975e-10 -0.9145399 -16.76013 20.22032 -2.749758 -1.046458 4.658555 0.3627779 9.340519 -5.984151 1.561818 22.65759 6.72654 3.224488 -20.52406 8.056146 3.298735 -19.42805 10.8677 86.92577 29.14362 -15.02333 2.968989e-11 -2.05673e-11 17.03187 -16.60351 9.740282 9.592956 5.525145 -18.86556 -3.306883 -93.18218 27.99712 21.20441 -7.178355e-10 -4.664812e-10 -15.94184 0.2673294 12.25014 13.96545
48.80742 102.0783 273.2039 1.293075 -3.728522 7.457755 1.876602 -11.85455 4.279242 2.977045e-09 36.1054 -1.752116e-09 -3.810587 -5.59499 -3.972624 -5.788638 5.318002 -14.74076 -3.915497e-09 9.332356 1.815298e-09 -0.8132854 -17.55366 19.49756 -2.70277 -1.102338 4.111307 0.6780692 9.217722 -6.450832 1.518056 22.40104 6.8411 3.277208 -20.64769 8.116428 3.376615 -18.51653 10.72854 87.04824 29.31054 -16.62348 5.946021e-11 -4.440402e-11 15.15864 -15.68544 9.666276 8.768628 5.716979 -19.43303 -3.446366 -91.06849 28.07688 18.86704 -5.883578e-10 -3.484934e-10 -17.6907 0.9498495 12.47933 13.03001
49.6793 101.9422 277.4716 1.11969 -3.425398 7.957836 2.296971 -15.6656 4.030193 2.620406e-09 33.51621 -1.293745e-09 -4.23763 -4.901262 -4.286138 -5.746984 8.675342 -14.70906 -2.239337e-09 11.43946 2.490899e-09 -0.9374422 -17.9781 18.65254 -2.54043 -1.142481 3.647309 0.9782106 9.186319 -6.891713 1.492926 22.16051 6.881655 3.30598 -20.72043 8.110525 3.358114 -17.66694 10.63279 87.31588 29.28991 -18.2567 8.322694e-11 -6.432592e-11 13.28782 -14.91061 9.674282 7.982431 5.877005 -20.08484 -3.632943 -89.04147 27.93733 16.61262 -4.021922e-10 -2.03621e-10 -19.52516 1.650486 12.68486 12.07164
